<mxfile host="app.diagrams.net" modified="2024-06-19T15:56:00.697Z" agent="Mozilla/5.0 (X11; Ubuntu; Linux x86_64; rv:127.0) Gecko/20100101 Firefox/127.0" etag="o_6M0B1Y3l-3S3HLLQk3" version="24.5.5" type="device">
  <diagram name="Page-1" id="CgnUULBLg6hnwR7-HXwo">
    <mxGraphModel dx="1137" dy="663" grid="0" gridSize="10" guides="1" tooltips="1" connect="1" arrows="1" fold="1" page="0" pageScale="1" pageWidth="850" pageHeight="1100" math="0" shadow="0">
      <root>
        <mxCell id="0" />
        <mxCell id="1" parent="0" />
        <mxCell id="39aX6Rvci1A8JW1GeRxu-1" value="&lt;div&gt;Tests&lt;/div&gt;&lt;div&gt;&lt;br&gt;&lt;/div&gt;" style="swimlane;fontStyle=1;align=center;verticalAlign=top;childLayout=stackLayout;horizontal=1;startSize=26;horizontalStack=0;resizeParent=1;resizeParentMax=0;resizeLast=0;collapsible=1;marginBottom=0;whiteSpace=wrap;html=1;" vertex="1" parent="1">
          <mxGeometry x="681" y="321" width="250" height="86" as="geometry" />
        </mxCell>
        <mxCell id="39aX6Rvci1A8JW1GeRxu-2" value="+ field: type" style="text;strokeColor=none;fillColor=none;align=left;verticalAlign=top;spacingLeft=4;spacingRight=4;overflow=hidden;rotatable=0;points=[[0,0.5],[1,0.5]];portConstraint=eastwest;whiteSpace=wrap;html=1;" vertex="1" parent="39aX6Rvci1A8JW1GeRxu-1">
          <mxGeometry y="26" width="250" height="26" as="geometry" />
        </mxCell>
        <mxCell id="39aX6Rvci1A8JW1GeRxu-3" value="" style="line;strokeWidth=1;fillColor=none;align=left;verticalAlign=middle;spacingTop=-1;spacingLeft=3;spacingRight=3;rotatable=0;labelPosition=right;points=[];portConstraint=eastwest;strokeColor=inherit;" vertex="1" parent="39aX6Rvci1A8JW1GeRxu-1">
          <mxGeometry y="52" width="250" height="8" as="geometry" />
        </mxCell>
        <mxCell id="39aX6Rvci1A8JW1GeRxu-4" value="+ method(type): type" style="text;strokeColor=none;fillColor=none;align=left;verticalAlign=top;spacingLeft=4;spacingRight=4;overflow=hidden;rotatable=0;points=[[0,0.5],[1,0.5]];portConstraint=eastwest;whiteSpace=wrap;html=1;" vertex="1" parent="39aX6Rvci1A8JW1GeRxu-1">
          <mxGeometry y="60" width="250" height="26" as="geometry" />
        </mxCell>
        <mxCell id="39aX6Rvci1A8JW1GeRxu-5" value="&lt;div&gt;Canevas&lt;/div&gt;" style="swimlane;fontStyle=1;align=center;verticalAlign=top;childLayout=stackLayout;horizontal=1;startSize=26;horizontalStack=0;resizeParent=1;resizeParentMax=0;resizeLast=0;collapsible=1;marginBottom=0;whiteSpace=wrap;html=1;" vertex="1" parent="1">
          <mxGeometry x="300" y="151" width="250" height="86" as="geometry" />
        </mxCell>
        <mxCell id="39aX6Rvci1A8JW1GeRxu-6" value="+ field: type" style="text;strokeColor=none;fillColor=none;align=left;verticalAlign=top;spacingLeft=4;spacingRight=4;overflow=hidden;rotatable=0;points=[[0,0.5],[1,0.5]];portConstraint=eastwest;whiteSpace=wrap;html=1;" vertex="1" parent="39aX6Rvci1A8JW1GeRxu-5">
          <mxGeometry y="26" width="250" height="26" as="geometry" />
        </mxCell>
        <mxCell id="39aX6Rvci1A8JW1GeRxu-7" value="" style="line;strokeWidth=1;fillColor=none;align=left;verticalAlign=middle;spacingTop=-1;spacingLeft=3;spacingRight=3;rotatable=0;labelPosition=right;points=[];portConstraint=eastwest;strokeColor=inherit;" vertex="1" parent="39aX6Rvci1A8JW1GeRxu-5">
          <mxGeometry y="52" width="250" height="8" as="geometry" />
        </mxCell>
        <mxCell id="39aX6Rvci1A8JW1GeRxu-8" value="+ method(type): type" style="text;strokeColor=none;fillColor=none;align=left;verticalAlign=top;spacingLeft=4;spacingRight=4;overflow=hidden;rotatable=0;points=[[0,0.5],[1,0.5]];portConstraint=eastwest;whiteSpace=wrap;html=1;" vertex="1" parent="39aX6Rvci1A8JW1GeRxu-5">
          <mxGeometry y="60" width="250" height="26" as="geometry" />
        </mxCell>
        <mxCell id="39aX6Rvci1A8JW1GeRxu-9" value="Couche" style="swimlane;fontStyle=1;align=center;verticalAlign=top;childLayout=stackLayout;horizontal=1;startSize=26;horizontalStack=0;resizeParent=1;resizeParentMax=0;resizeLast=0;collapsible=1;marginBottom=0;whiteSpace=wrap;html=1;" vertex="1" parent="1">
          <mxGeometry x="300" y="321" width="250" height="86" as="geometry" />
        </mxCell>
        <mxCell id="39aX6Rvci1A8JW1GeRxu-10" value="+ field: type" style="text;strokeColor=none;fillColor=none;align=left;verticalAlign=top;spacingLeft=4;spacingRight=4;overflow=hidden;rotatable=0;points=[[0,0.5],[1,0.5]];portConstraint=eastwest;whiteSpace=wrap;html=1;" vertex="1" parent="39aX6Rvci1A8JW1GeRxu-9">
          <mxGeometry y="26" width="250" height="26" as="geometry" />
        </mxCell>
        <mxCell id="39aX6Rvci1A8JW1GeRxu-11" value="" style="line;strokeWidth=1;fillColor=none;align=left;verticalAlign=middle;spacingTop=-1;spacingLeft=3;spacingRight=3;rotatable=0;labelPosition=right;points=[];portConstraint=eastwest;strokeColor=inherit;" vertex="1" parent="39aX6Rvci1A8JW1GeRxu-9">
          <mxGeometry y="52" width="250" height="8" as="geometry" />
        </mxCell>
        <mxCell id="39aX6Rvci1A8JW1GeRxu-12" value="+ method(type): type" style="text;strokeColor=none;fillColor=none;align=left;verticalAlign=top;spacingLeft=4;spacingRight=4;overflow=hidden;rotatable=0;points=[[0,0.5],[1,0.5]];portConstraint=eastwest;whiteSpace=wrap;html=1;" vertex="1" parent="39aX6Rvci1A8JW1GeRxu-9">
          <mxGeometry y="60" width="250" height="26" as="geometry" />
        </mxCell>
        <mxCell id="39aX6Rvci1A8JW1GeRxu-13" value="&lt;div&gt;Forme{abstract}&lt;/div&gt;" style="swimlane;fontStyle=1;align=center;verticalAlign=top;childLayout=stackLayout;horizontal=1;startSize=26;horizontalStack=0;resizeParent=1;resizeParentMax=0;resizeLast=0;collapsible=1;marginBottom=0;whiteSpace=wrap;html=1;" vertex="1" parent="1">
          <mxGeometry x="300" y="501" width="250" height="268" as="geometry" />
        </mxCell>
        <mxCell id="39aX6Rvci1A8JW1GeRxu-14" value="# ancrage: Coordonnee" style="text;strokeColor=none;fillColor=none;align=left;verticalAlign=top;spacingLeft=4;spacingRight=4;overflow=hidden;rotatable=0;points=[[0,0.5],[1,0.5]];portConstraint=eastwest;whiteSpace=wrap;html=1;" vertex="1" parent="39aX6Rvci1A8JW1GeRxu-13">
          <mxGeometry y="26" width="250" height="26" as="geometry" />
        </mxCell>
        <mxCell id="39aX6Rvci1A8JW1GeRxu-15" value="" style="line;strokeWidth=1;fillColor=none;align=left;verticalAlign=middle;spacingTop=-1;spacingLeft=3;spacingRight=3;rotatable=0;labelPosition=right;points=[];portConstraint=eastwest;strokeColor=inherit;" vertex="1" parent="39aX6Rvci1A8JW1GeRxu-13">
          <mxGeometry y="52" width="250" height="8" as="geometry" />
        </mxCell>
        <mxCell id="39aX6Rvci1A8JW1GeRxu-16" value="&lt;div&gt;+ Forme()&lt;br&gt;&lt;/div&gt;" style="text;strokeColor=none;fillColor=none;align=left;verticalAlign=top;spacingLeft=4;spacingRight=4;overflow=hidden;rotatable=0;points=[[0,0.5],[1,0.5]];portConstraint=eastwest;whiteSpace=wrap;html=1;" vertex="1" parent="39aX6Rvci1A8JW1GeRxu-13">
          <mxGeometry y="60" width="250" height="26" as="geometry" />
        </mxCell>
        <mxCell id="39aX6Rvci1A8JW1GeRxu-53" value="&lt;div&gt;+ Forme(x: int, y: int)&lt;/div&gt;" style="text;strokeColor=none;fillColor=none;align=left;verticalAlign=top;spacingLeft=4;spacingRight=4;overflow=hidden;rotatable=0;points=[[0,0.5],[1,0.5]];portConstraint=eastwest;whiteSpace=wrap;html=1;" vertex="1" parent="39aX6Rvci1A8JW1GeRxu-13">
          <mxGeometry y="86" width="250" height="26" as="geometry" />
        </mxCell>
        <mxCell id="39aX6Rvci1A8JW1GeRxu-54" value="&lt;div&gt;+ translater(deltaX: int, deltaY: int): void&lt;br&gt;&lt;/div&gt;" style="text;strokeColor=none;fillColor=none;align=left;verticalAlign=top;spacingLeft=4;spacingRight=4;overflow=hidden;rotatable=0;points=[[0,0.5],[1,0.5]];portConstraint=eastwest;whiteSpace=wrap;html=1;" vertex="1" parent="39aX6Rvci1A8JW1GeRxu-13">
          <mxGeometry y="112" width="250" height="26" as="geometry" />
        </mxCell>
        <mxCell id="39aX6Rvci1A8JW1GeRxu-55" value="&lt;div&gt;+ getAncrage(): Coordonnee&lt;br&gt;&lt;/div&gt;" style="text;strokeColor=none;fillColor=none;align=left;verticalAlign=top;spacingLeft=4;spacingRight=4;overflow=hidden;rotatable=0;points=[[0,0.5],[1,0.5]];portConstraint=eastwest;whiteSpace=wrap;html=1;" vertex="1" parent="39aX6Rvci1A8JW1GeRxu-13">
          <mxGeometry y="138" width="250" height="26" as="geometry" />
        </mxCell>
        <mxCell id="39aX6Rvci1A8JW1GeRxu-56" value="&lt;div&gt;+ setAncrage(c: Coordonnee): void&lt;br&gt;&lt;/div&gt;" style="text;strokeColor=none;fillColor=none;align=left;verticalAlign=top;spacingLeft=4;spacingRight=4;overflow=hidden;rotatable=0;points=[[0,0.5],[1,0.5]];portConstraint=eastwest;whiteSpace=wrap;html=1;" vertex="1" parent="39aX6Rvci1A8JW1GeRxu-13">
          <mxGeometry y="164" width="250" height="26" as="geometry" />
        </mxCell>
        <mxCell id="39aX6Rvci1A8JW1GeRxu-57" value="&lt;div&gt;+ aire(): void {abstract}&lt;br&gt;&lt;/div&gt;" style="text;strokeColor=none;fillColor=none;align=left;verticalAlign=top;spacingLeft=4;spacingRight=4;overflow=hidden;rotatable=0;points=[[0,0.5],[1,0.5]];portConstraint=eastwest;whiteSpace=wrap;html=1;" vertex="1" parent="39aX6Rvci1A8JW1GeRxu-13">
          <mxGeometry y="190" width="250" height="26" as="geometry" />
        </mxCell>
        <mxCell id="39aX6Rvci1A8JW1GeRxu-58" value="&lt;div&gt;+ afficher(s: ostream): void {abstract}&lt;br&gt;&lt;/div&gt;" style="text;strokeColor=none;fillColor=none;align=left;verticalAlign=top;spacingLeft=4;spacingRight=4;overflow=hidden;rotatable=0;points=[[0,0.5],[1,0.5]];portConstraint=eastwest;whiteSpace=wrap;html=1;" vertex="1" parent="39aX6Rvci1A8JW1GeRxu-13">
          <mxGeometry y="216" width="250" height="26" as="geometry" />
        </mxCell>
        <mxCell id="39aX6Rvci1A8JW1GeRxu-59" value="&lt;div&gt;+ ~Forme()&lt;br&gt;&lt;/div&gt;" style="text;strokeColor=none;fillColor=none;align=left;verticalAlign=top;spacingLeft=4;spacingRight=4;overflow=hidden;rotatable=0;points=[[0,0.5],[1,0.5]];portConstraint=eastwest;whiteSpace=wrap;html=1;" vertex="1" parent="39aX6Rvci1A8JW1GeRxu-13">
          <mxGeometry y="242" width="250" height="26" as="geometry" />
        </mxCell>
        <mxCell id="39aX6Rvci1A8JW1GeRxu-17" value="Rectangle" style="swimlane;fontStyle=1;align=center;verticalAlign=top;childLayout=stackLayout;horizontal=1;startSize=26;horizontalStack=0;resizeParent=1;resizeParentMax=0;resizeLast=0;collapsible=1;marginBottom=0;whiteSpace=wrap;html=1;" vertex="1" parent="1">
          <mxGeometry x="8" y="793" width="250" height="86" as="geometry" />
        </mxCell>
        <mxCell id="39aX6Rvci1A8JW1GeRxu-18" value="+ field: type" style="text;strokeColor=none;fillColor=none;align=left;verticalAlign=top;spacingLeft=4;spacingRight=4;overflow=hidden;rotatable=0;points=[[0,0.5],[1,0.5]];portConstraint=eastwest;whiteSpace=wrap;html=1;" vertex="1" parent="39aX6Rvci1A8JW1GeRxu-17">
          <mxGeometry y="26" width="250" height="26" as="geometry" />
        </mxCell>
        <mxCell id="39aX6Rvci1A8JW1GeRxu-19" value="" style="line;strokeWidth=1;fillColor=none;align=left;verticalAlign=middle;spacingTop=-1;spacingLeft=3;spacingRight=3;rotatable=0;labelPosition=right;points=[];portConstraint=eastwest;strokeColor=inherit;" vertex="1" parent="39aX6Rvci1A8JW1GeRxu-17">
          <mxGeometry y="52" width="250" height="8" as="geometry" />
        </mxCell>
        <mxCell id="39aX6Rvci1A8JW1GeRxu-20" value="+ method(type): type" style="text;strokeColor=none;fillColor=none;align=left;verticalAlign=top;spacingLeft=4;spacingRight=4;overflow=hidden;rotatable=0;points=[[0,0.5],[1,0.5]];portConstraint=eastwest;whiteSpace=wrap;html=1;" vertex="1" parent="39aX6Rvci1A8JW1GeRxu-17">
          <mxGeometry y="60" width="250" height="26" as="geometry" />
        </mxCell>
        <mxCell id="39aX6Rvci1A8JW1GeRxu-21" value="&lt;div&gt;Carre&lt;/div&gt;" style="swimlane;fontStyle=1;align=center;verticalAlign=top;childLayout=stackLayout;horizontal=1;startSize=26;horizontalStack=0;resizeParent=1;resizeParentMax=0;resizeLast=0;collapsible=1;marginBottom=0;whiteSpace=wrap;html=1;" vertex="1" parent="1">
          <mxGeometry x="300" y="849" width="250" height="86" as="geometry" />
        </mxCell>
        <mxCell id="39aX6Rvci1A8JW1GeRxu-22" value="+ field: type" style="text;strokeColor=none;fillColor=none;align=left;verticalAlign=top;spacingLeft=4;spacingRight=4;overflow=hidden;rotatable=0;points=[[0,0.5],[1,0.5]];portConstraint=eastwest;whiteSpace=wrap;html=1;" vertex="1" parent="39aX6Rvci1A8JW1GeRxu-21">
          <mxGeometry y="26" width="250" height="26" as="geometry" />
        </mxCell>
        <mxCell id="39aX6Rvci1A8JW1GeRxu-23" value="" style="line;strokeWidth=1;fillColor=none;align=left;verticalAlign=middle;spacingTop=-1;spacingLeft=3;spacingRight=3;rotatable=0;labelPosition=right;points=[];portConstraint=eastwest;strokeColor=inherit;" vertex="1" parent="39aX6Rvci1A8JW1GeRxu-21">
          <mxGeometry y="52" width="250" height="8" as="geometry" />
        </mxCell>
        <mxCell id="39aX6Rvci1A8JW1GeRxu-24" value="+ method(type): type" style="text;strokeColor=none;fillColor=none;align=left;verticalAlign=top;spacingLeft=4;spacingRight=4;overflow=hidden;rotatable=0;points=[[0,0.5],[1,0.5]];portConstraint=eastwest;whiteSpace=wrap;html=1;" vertex="1" parent="39aX6Rvci1A8JW1GeRxu-21">
          <mxGeometry y="60" width="250" height="26" as="geometry" />
        </mxCell>
        <mxCell id="39aX6Rvci1A8JW1GeRxu-25" value="Cercle" style="swimlane;fontStyle=1;align=center;verticalAlign=top;childLayout=stackLayout;horizontal=1;startSize=26;horizontalStack=0;resizeParent=1;resizeParentMax=0;resizeLast=0;collapsible=1;marginBottom=0;whiteSpace=wrap;html=1;" vertex="1" parent="1">
          <mxGeometry x="588" y="793" width="250" height="86" as="geometry" />
        </mxCell>
        <mxCell id="39aX6Rvci1A8JW1GeRxu-26" value="+ field: type" style="text;strokeColor=none;fillColor=none;align=left;verticalAlign=top;spacingLeft=4;spacingRight=4;overflow=hidden;rotatable=0;points=[[0,0.5],[1,0.5]];portConstraint=eastwest;whiteSpace=wrap;html=1;" vertex="1" parent="39aX6Rvci1A8JW1GeRxu-25">
          <mxGeometry y="26" width="250" height="26" as="geometry" />
        </mxCell>
        <mxCell id="39aX6Rvci1A8JW1GeRxu-27" value="" style="line;strokeWidth=1;fillColor=none;align=left;verticalAlign=middle;spacingTop=-1;spacingLeft=3;spacingRight=3;rotatable=0;labelPosition=right;points=[];portConstraint=eastwest;strokeColor=inherit;" vertex="1" parent="39aX6Rvci1A8JW1GeRxu-25">
          <mxGeometry y="52" width="250" height="8" as="geometry" />
        </mxCell>
        <mxCell id="39aX6Rvci1A8JW1GeRxu-28" value="+ method(type): type" style="text;strokeColor=none;fillColor=none;align=left;verticalAlign=top;spacingLeft=4;spacingRight=4;overflow=hidden;rotatable=0;points=[[0,0.5],[1,0.5]];portConstraint=eastwest;whiteSpace=wrap;html=1;" vertex="1" parent="39aX6Rvci1A8JW1GeRxu-25">
          <mxGeometry y="60" width="250" height="26" as="geometry" />
        </mxCell>
        <mxCell id="39aX6Rvci1A8JW1GeRxu-29" value="&lt;div&gt;Vecteur&lt;/div&gt;" style="swimlane;fontStyle=1;align=center;verticalAlign=top;childLayout=stackLayout;horizontal=1;startSize=26;horizontalStack=0;resizeParent=1;resizeParentMax=0;resizeLast=0;collapsible=1;marginBottom=0;whiteSpace=wrap;html=1;" vertex="1" parent="1">
          <mxGeometry x="681" y="151" width="250" height="86" as="geometry" />
        </mxCell>
        <mxCell id="39aX6Rvci1A8JW1GeRxu-30" value="+ field: type" style="text;strokeColor=none;fillColor=none;align=left;verticalAlign=top;spacingLeft=4;spacingRight=4;overflow=hidden;rotatable=0;points=[[0,0.5],[1,0.5]];portConstraint=eastwest;whiteSpace=wrap;html=1;" vertex="1" parent="39aX6Rvci1A8JW1GeRxu-29">
          <mxGeometry y="26" width="250" height="26" as="geometry" />
        </mxCell>
        <mxCell id="39aX6Rvci1A8JW1GeRxu-31" value="" style="line;strokeWidth=1;fillColor=none;align=left;verticalAlign=middle;spacingTop=-1;spacingLeft=3;spacingRight=3;rotatable=0;labelPosition=right;points=[];portConstraint=eastwest;strokeColor=inherit;" vertex="1" parent="39aX6Rvci1A8JW1GeRxu-29">
          <mxGeometry y="52" width="250" height="8" as="geometry" />
        </mxCell>
        <mxCell id="39aX6Rvci1A8JW1GeRxu-32" value="+ method(type): type" style="text;strokeColor=none;fillColor=none;align=left;verticalAlign=top;spacingLeft=4;spacingRight=4;overflow=hidden;rotatable=0;points=[[0,0.5],[1,0.5]];portConstraint=eastwest;whiteSpace=wrap;html=1;" vertex="1" parent="39aX6Rvci1A8JW1GeRxu-29">
          <mxGeometry y="60" width="250" height="26" as="geometry" />
        </mxCell>
        <mxCell id="39aX6Rvci1A8JW1GeRxu-33" value="" style="endArrow=block;endSize=16;endFill=0;html=1;rounded=0;entryX=0;entryY=0.5;entryDx=0;entryDy=0;exitX=0.5;exitY=0;exitDx=0;exitDy=0;" edge="1" parent="1" source="39aX6Rvci1A8JW1GeRxu-17" target="39aX6Rvci1A8JW1GeRxu-14">
          <mxGeometry width="160" relative="1" as="geometry">
            <mxPoint x="101" y="636" as="sourcePoint" />
            <mxPoint x="261" y="636" as="targetPoint" />
          </mxGeometry>
        </mxCell>
        <mxCell id="39aX6Rvci1A8JW1GeRxu-38" value="" style="endArrow=block;endSize=16;endFill=0;html=1;rounded=0;exitX=0.5;exitY=0;exitDx=0;exitDy=0;entryX=0.512;entryY=1.115;entryDx=0;entryDy=0;entryPerimeter=0;" edge="1" parent="1" source="39aX6Rvci1A8JW1GeRxu-21" target="39aX6Rvci1A8JW1GeRxu-59">
          <mxGeometry width="160" relative="1" as="geometry">
            <mxPoint x="145" y="680" as="sourcePoint" />
            <mxPoint x="421" y="755" as="targetPoint" />
          </mxGeometry>
        </mxCell>
        <mxCell id="39aX6Rvci1A8JW1GeRxu-39" value="" style="endArrow=block;endSize=16;endFill=0;html=1;rounded=0;entryX=1.004;entryY=0.782;entryDx=0;entryDy=0;exitX=0.5;exitY=0;exitDx=0;exitDy=0;entryPerimeter=0;" edge="1" parent="1" source="39aX6Rvci1A8JW1GeRxu-25" target="39aX6Rvci1A8JW1GeRxu-14">
          <mxGeometry width="160" relative="1" as="geometry">
            <mxPoint x="155" y="690" as="sourcePoint" />
            <mxPoint x="320" y="535" as="targetPoint" />
          </mxGeometry>
        </mxCell>
        <mxCell id="39aX6Rvci1A8JW1GeRxu-40" value="1" style="endArrow=diamondThin;endFill=0;endSize=24;html=1;rounded=0;entryX=0.5;entryY=1;entryDx=0;entryDy=0;exitX=0.5;exitY=0;exitDx=0;exitDy=0;" edge="1" parent="1" source="39aX6Rvci1A8JW1GeRxu-13" target="39aX6Rvci1A8JW1GeRxu-9">
          <mxGeometry x="0.617" y="-14" width="160" relative="1" as="geometry">
            <mxPoint x="469" y="465" as="sourcePoint" />
            <mxPoint x="629" y="465" as="targetPoint" />
            <mxPoint as="offset" />
          </mxGeometry>
        </mxCell>
        <mxCell id="39aX6Rvci1A8JW1GeRxu-43" value="0..5" style="edgeLabel;html=1;align=center;verticalAlign=middle;resizable=0;points=[];" vertex="1" connectable="0" parent="39aX6Rvci1A8JW1GeRxu-40">
          <mxGeometry x="-0.0816" y="-2" relative="1" as="geometry">
            <mxPoint x="14" y="32" as="offset" />
          </mxGeometry>
        </mxCell>
        <mxCell id="39aX6Rvci1A8JW1GeRxu-44" value="1" style="endArrow=diamondThin;endFill=0;endSize=24;html=1;rounded=0;entryX=0.5;entryY=1;entryDx=0;entryDy=0;exitX=0.5;exitY=0;exitDx=0;exitDy=0;" edge="1" parent="1" source="39aX6Rvci1A8JW1GeRxu-9" target="39aX6Rvci1A8JW1GeRxu-5">
          <mxGeometry x="0.617" y="-14" width="160" relative="1" as="geometry">
            <mxPoint x="425" y="323" as="sourcePoint" />
            <mxPoint x="435" y="417" as="targetPoint" />
            <mxPoint as="offset" />
          </mxGeometry>
        </mxCell>
        <mxCell id="39aX6Rvci1A8JW1GeRxu-45" value="*" style="edgeLabel;html=1;align=center;verticalAlign=middle;resizable=0;points=[];fontSize=14;" vertex="1" connectable="0" parent="39aX6Rvci1A8JW1GeRxu-44">
          <mxGeometry x="-0.0816" y="-2" relative="1" as="geometry">
            <mxPoint x="7" y="27" as="offset" />
          </mxGeometry>
        </mxCell>
        <mxCell id="39aX6Rvci1A8JW1GeRxu-46" value="" style="endArrow=diamondThin;endFill=1;endSize=24;html=1;rounded=0;entryX=1;entryY=0.5;entryDx=0;entryDy=0;exitX=0;exitY=0.5;exitDx=0;exitDy=0;" edge="1" parent="1" source="39aX6Rvci1A8JW1GeRxu-30" target="39aX6Rvci1A8JW1GeRxu-6">
          <mxGeometry width="160" relative="1" as="geometry">
            <mxPoint x="556" y="270" as="sourcePoint" />
            <mxPoint x="716" y="270" as="targetPoint" />
          </mxGeometry>
        </mxCell>
        <mxCell id="39aX6Rvci1A8JW1GeRxu-47" value="&lt;div style=&quot;font-size: 12px;&quot;&gt;1&lt;/div&gt;" style="edgeLabel;html=1;align=center;verticalAlign=middle;resizable=0;points=[];fontSize=12;" vertex="1" connectable="0" parent="39aX6Rvci1A8JW1GeRxu-46">
          <mxGeometry x="0.2163" y="4" relative="1" as="geometry">
            <mxPoint x="-34" y="14" as="offset" />
          </mxGeometry>
        </mxCell>
        <mxCell id="39aX6Rvci1A8JW1GeRxu-48" value="&lt;div style=&quot;font-size: 12px;&quot;&gt;1&lt;/div&gt;" style="edgeLabel;html=1;align=center;verticalAlign=middle;resizable=0;points=[];fontSize=12;" vertex="1" connectable="0" parent="39aX6Rvci1A8JW1GeRxu-46">
          <mxGeometry x="-0.1781" y="-1" relative="1" as="geometry">
            <mxPoint x="38" y="18" as="offset" />
          </mxGeometry>
        </mxCell>
        <mxCell id="39aX6Rvci1A8JW1GeRxu-49" value="" style="endArrow=open;endSize=12;dashed=1;html=1;rounded=0;entryX=0.5;entryY=0;entryDx=0;entryDy=0;exitX=0.501;exitY=1.16;exitDx=0;exitDy=0;exitPerimeter=0;" edge="1" parent="1" source="39aX6Rvci1A8JW1GeRxu-32" target="39aX6Rvci1A8JW1GeRxu-1">
          <mxGeometry width="160" relative="1" as="geometry">
            <mxPoint x="718" y="463" as="sourcePoint" />
            <mxPoint x="878" y="463" as="targetPoint" />
          </mxGeometry>
        </mxCell>
        <mxCell id="39aX6Rvci1A8JW1GeRxu-50" value="" style="endArrow=open;endSize=12;dashed=1;html=1;rounded=0;entryX=0;entryY=0;entryDx=0;entryDy=0;exitX=1;exitY=1;exitDx=0;exitDy=0;" edge="1" parent="1" source="39aX6Rvci1A8JW1GeRxu-5" target="39aX6Rvci1A8JW1GeRxu-1">
          <mxGeometry width="160" relative="1" as="geometry">
            <mxPoint x="574" y="245" as="sourcePoint" />
            <mxPoint x="574" y="325" as="targetPoint" />
          </mxGeometry>
        </mxCell>
        <mxCell id="39aX6Rvci1A8JW1GeRxu-51" value="" style="endArrow=open;endSize=12;dashed=1;html=1;rounded=0;entryX=0;entryY=0.5;entryDx=0;entryDy=0;exitX=1;exitY=0.5;exitDx=0;exitDy=0;" edge="1" parent="1" source="39aX6Rvci1A8JW1GeRxu-10" target="39aX6Rvci1A8JW1GeRxu-2">
          <mxGeometry width="160" relative="1" as="geometry">
            <mxPoint x="826" y="261" as="sourcePoint" />
            <mxPoint x="826" y="341" as="targetPoint" />
          </mxGeometry>
        </mxCell>
        <mxCell id="39aX6Rvci1A8JW1GeRxu-52" value="" style="endArrow=open;endSize=12;dashed=1;html=1;rounded=0;entryX=0;entryY=1;entryDx=0;entryDy=0;exitX=1;exitY=0;exitDx=0;exitDy=0;" edge="1" parent="1" source="39aX6Rvci1A8JW1GeRxu-13" target="39aX6Rvci1A8JW1GeRxu-1">
          <mxGeometry width="160" relative="1" as="geometry">
            <mxPoint x="836" y="271" as="sourcePoint" />
            <mxPoint x="836" y="351" as="targetPoint" />
          </mxGeometry>
        </mxCell>
      </root>
    </mxGraphModel>
  </diagram>
</mxfile>
